<svg width="48" height="48" viewBox="0 0 48 48" fill="none" xmlns="http://www.w3.org/2000/svg">
<path d="M48 0H0V48H48V0Z" fill="#FF9D00"/>
<path fill-rule="evenodd" clip-rule="evenodd" d="M29.4001 18.6H27.6001H25.8001H24.0001H22.2001H20.4001V20.4V22.2V24V25.8V27.6H22.2001H24.0001H25.8001H27.6001H29.4001V25.8V24V22.2V20.4V18.6ZM31.2001 18.6H33.0001V20.4H31.2001V22.2H33.0001V24H31.2001V25.8H33.0001V27.6H31.2001V28.1544C31.2001 28.8402 30.6403 29.4 29.9545 29.4H29.4001V31.2H27.6001V29.4H25.8001V31.2H24.0001V29.4H22.2001V31.2H20.4001V29.4H19.8457C19.1599 29.4 18.6001 28.8402 18.6001 28.1544V27.6H16.8001V25.8H18.6001V24H16.8001V22.2H18.6001V20.4H16.8001V18.6H18.6001V18.0456C18.6001 17.3598 19.1599 16.8 19.8457 16.8H20.4001V15H22.2001V16.8H24.0001V15H25.8001V16.8H27.6001V15H29.4001V16.8H29.9545C30.6403 16.8 31.2001 17.3598 31.2001 18.0456V18.6ZM24.0001 36.6H11.4001V25.8H15.0001V24H11.0401C10.2445 24 9.6001 24.6156 9.6001 25.3716V36.9942C9.6001 37.77 10.2319 38.4 11.0059 38.4H24.3601C25.1557 38.4 25.8001 37.7844 25.8001 37.0284V33H24.0001V36.6ZM38.4001 11.0058V24.3942C38.4001 25.17 37.7683 25.8 36.9943 25.8H34.8001V24H36.6001V11.4H24.0001V13.2H22.2001V11.0058C22.2001 10.23 22.8319 9.6 23.6059 9.6H36.9943C37.7683 9.6 38.4001 10.23 38.4001 11.0058Z" fill="white"/>
</svg>
